<mxfile host="Electron" agent="Mozilla/5.0 (Windows NT 10.0; Win64; x64) AppleWebKit/537.36 (KHTML, like Gecko) draw.io/26.0.16 Chrome/132.0.6834.196 Electron/34.2.0 Safari/537.36" version="26.0.16">
  <diagram name="Page-1" id="oW8YaZWi5GH37_h1e9ZP">
    <mxGraphModel dx="1434" dy="884" grid="1" gridSize="10" guides="1" tooltips="1" connect="1" arrows="1" fold="1" page="1" pageScale="1" pageWidth="850" pageHeight="1100" math="0" shadow="0">
      <root>
        <mxCell id="0" />
        <mxCell id="1" parent="0" />
        <mxCell id="ktiTCyIwKl2Dy99G9-hS-7" style="edgeStyle=orthogonalEdgeStyle;rounded=0;orthogonalLoop=1;jettySize=auto;html=1;entryX=0.5;entryY=0;entryDx=0;entryDy=0;" edge="1" parent="1" source="ktiTCyIwKl2Dy99G9-hS-1" target="ktiTCyIwKl2Dy99G9-hS-2">
          <mxGeometry relative="1" as="geometry" />
        </mxCell>
        <mxCell id="ktiTCyIwKl2Dy99G9-hS-1" value="Start" style="strokeWidth=2;html=1;shape=mxgraph.flowchart.start_1;whiteSpace=wrap;fillColor=#ffe6cc;strokeColor=#d79b00;fontSize=16;fontStyle=1" vertex="1" parent="1">
          <mxGeometry x="530" y="210" width="100" height="60" as="geometry" />
        </mxCell>
        <mxCell id="ktiTCyIwKl2Dy99G9-hS-8" style="edgeStyle=orthogonalEdgeStyle;rounded=0;orthogonalLoop=1;jettySize=auto;html=1;entryX=0.5;entryY=0;entryDx=0;entryDy=0;" edge="1" parent="1" source="ktiTCyIwKl2Dy99G9-hS-2" target="ktiTCyIwKl2Dy99G9-hS-3">
          <mxGeometry relative="1" as="geometry" />
        </mxCell>
        <mxCell id="ktiTCyIwKl2Dy99G9-hS-2" value="input P, R, T" style="shape=parallelogram;html=1;strokeWidth=2;perimeter=parallelogramPerimeter;whiteSpace=wrap;rounded=1;arcSize=12;size=0.23;fillColor=#ffe6cc;strokeColor=#d79b00;fontSize=16;" vertex="1" parent="1">
          <mxGeometry x="500" y="320" width="160" height="60" as="geometry" />
        </mxCell>
        <mxCell id="ktiTCyIwKl2Dy99G9-hS-9" style="edgeStyle=orthogonalEdgeStyle;rounded=0;orthogonalLoop=1;jettySize=auto;html=1;entryX=0.5;entryY=0;entryDx=0;entryDy=0;" edge="1" parent="1" source="ktiTCyIwKl2Dy99G9-hS-3" target="ktiTCyIwKl2Dy99G9-hS-4">
          <mxGeometry relative="1" as="geometry" />
        </mxCell>
        <mxCell id="ktiTCyIwKl2Dy99G9-hS-3" value="SI = (P*R*T)/100" style="rounded=1;whiteSpace=wrap;html=1;absoluteArcSize=1;arcSize=14;strokeWidth=2;fillColor=#ffe6cc;strokeColor=#d79b00;fontSize=16;fontStyle=3" vertex="1" parent="1">
          <mxGeometry x="500" y="450" width="160" height="100" as="geometry" />
        </mxCell>
        <mxCell id="ktiTCyIwKl2Dy99G9-hS-10" style="edgeStyle=orthogonalEdgeStyle;rounded=0;orthogonalLoop=1;jettySize=auto;html=1;entryX=0.5;entryY=0;entryDx=0;entryDy=0;entryPerimeter=0;" edge="1" parent="1" source="ktiTCyIwKl2Dy99G9-hS-4" target="ktiTCyIwKl2Dy99G9-hS-5">
          <mxGeometry relative="1" as="geometry">
            <mxPoint x="580" y="720" as="targetPoint" />
          </mxGeometry>
        </mxCell>
        <mxCell id="ktiTCyIwKl2Dy99G9-hS-4" value="print SI" style="shape=parallelogram;html=1;strokeWidth=2;perimeter=parallelogramPerimeter;whiteSpace=wrap;rounded=1;arcSize=12;size=0.23;fillColor=#ffe6cc;strokeColor=#d79b00;fontSize=16;" vertex="1" parent="1">
          <mxGeometry x="500" y="610" width="160" height="60" as="geometry" />
        </mxCell>
        <mxCell id="ktiTCyIwKl2Dy99G9-hS-5" value="Exit" style="strokeWidth=2;html=1;shape=mxgraph.flowchart.start_1;whiteSpace=wrap;fillColor=#ffe6cc;strokeColor=#d79b00;fontSize=16;fontStyle=1" vertex="1" parent="1">
          <mxGeometry x="530" y="730" width="100" height="60" as="geometry" />
        </mxCell>
        <mxCell id="ktiTCyIwKl2Dy99G9-hS-11" value="&lt;font style=&quot;font-size: 22px; color: rgb(255, 181, 112);&quot;&gt;Input&lt;/font&gt;&lt;div&gt;&lt;span style=&quot;font-size: 22px;&quot;&gt;&lt;br&gt;&lt;/span&gt;&lt;div&gt;Principal, P&lt;/div&gt;&lt;div&gt;Rate, R&lt;/div&gt;&lt;div&gt;Time, T&lt;/div&gt;&lt;/div&gt;" style="text;html=1;align=left;verticalAlign=middle;resizable=0;points=[];autosize=1;strokeColor=none;fillColor=none;fontSize=18;" vertex="1" parent="1">
          <mxGeometry x="90" y="285" width="110" height="130" as="geometry" />
        </mxCell>
        <mxCell id="ktiTCyIwKl2Dy99G9-hS-12" value="&lt;font style=&quot;font-size: 22px; color: rgb(255, 181, 112);&quot;&gt;Output&lt;/font&gt;&lt;div&gt;&lt;span style=&quot;font-size: 22px;&quot;&gt;&lt;br&gt;&lt;/span&gt;&lt;div&gt;SI = PRT/100&lt;/div&gt;&lt;/div&gt;" style="text;html=1;align=left;verticalAlign=middle;resizable=0;points=[];autosize=1;strokeColor=none;fillColor=none;fontSize=18;" vertex="1" parent="1">
          <mxGeometry x="90" y="595" width="130" height="90" as="geometry" />
        </mxCell>
        <mxCell id="ktiTCyIwKl2Dy99G9-hS-13" value="Calculate &lt;b&gt;&lt;font style=&quot;color: rgb(51, 51, 255);&quot;&gt;Simple Interest&lt;/font&gt;&lt;/b&gt;" style="text;html=1;align=center;verticalAlign=middle;resizable=0;points=[];autosize=1;strokeColor=none;fillColor=none;fontSize=24;fontStyle=4" vertex="1" parent="1">
          <mxGeometry x="115" y="83" width="300" height="40" as="geometry" />
        </mxCell>
      </root>
    </mxGraphModel>
  </diagram>
</mxfile>
